<svg height="512" viewBox="0 0 64 64" width="512" xmlns="http://www.w3.org/2000/svg"><path d="m18.59 36a13.536 13.536 0 0 1 -.59-4 14 14 0 1 1 28 0 13.536 13.536 0 0 1 -.59 4 13.863 13.863 0 0 1 -5.41 7.48v-.48a6 6 0 0 0 -6-6v-2.54a3.98 3.98 0 0 0 2-3.46v-2h1v-2a5 5 0 0 0 -10 0v2h1v2a4.025 4.025 0 0 0 1.17 2.83 4.225 4.225 0 0 0 .83.63v2.54a6 6 0 0 0 -6 6v.48a13.863 13.863 0 0 1 -5.41-7.48z" fill="#ffd422"/><path d="m40 43v.48a13.958 13.958 0 0 1 -16 0v-.48a6 6 0 0 1 6-6l2 2 2-2a6 6 0 0 1 6 6z" fill="#3d9ae2"/><path d="m34 34.46v2.54l-2 2-2-2v-2.54a3.974 3.974 0 0 0 4 0z" fill="#ffb655"/><path d="m37 27v2h-1.17a2.006 2.006 0 0 1 -1.42-.59l-1.41-1.41-.83.83a4 4 0 0 1 -2.83 1.17h-2.34v-2a5 5 0 0 1 10 0z" fill="#787680"/><path d="m36 29v2a3.994 3.994 0 0 1 -6 3.46 4.225 4.225 0 0 1 -.83-.63 4.025 4.025 0 0 1 -1.17-2.83v-2h1.34a4 4 0 0 0 2.83-1.17l.83-.83 1.41 1.41a2.006 2.006 0 0 0 1.42.59z" fill="#ffc477"/><path d="m34 34.46v1a3.974 3.974 0 0 1 -4 0v-1a3.974 3.974 0 0 0 4 0z" fill="#ffa733"/><path d="m42.607 22.807-1.414-1.414 4.1-4.1a1 1 0 0 1 .707-.293h8v2h-7.586z" fill="#ff9811"/><path d="m46 31h8v2h-8z" fill="#ff9811"/><path d="m54 47h-8a1 1 0 0 1 -.707-.293l-4.1-4.1 1.414-1.414 3.807 3.807h7.586z" fill="#ff9811"/><path d="m21.393 22.807-3.807-3.807h-7.586v-2h8a1 1 0 0 1 .707.293l4.1 4.1z" fill="#ff9811"/><circle cx="59" cy="18" fill="#ff5023" r="3"/><circle cx="59" cy="46" fill="#ff5023" r="3"/><circle cx="5" cy="18" fill="#ff5023" r="3"/><circle cx="5" cy="46" fill="#ff5023" r="3"/><path d="m10 31h8v2h-8z" fill="#ff9811"/><path d="m18 47h-8v-2h7.586l3.807-3.807 1.414 1.414-4.1 4.1a1 1 0 0 1 -.707.293z" fill="#ff9811"/><path d="m38 18.93h-2v-4.93a1 1 0 0 1 .293-.707l9-9a1 1 0 0 1 .707-.293h8v2h-7.586l-8.414 8.414z" fill="#ff9811"/><path d="m28 18.93h-2v-4.516l-8.414-8.414h-7.586v-2h8a1 1 0 0 1 .707.293l9 9a1 1 0 0 1 .293.707z" fill="#ff9811"/><path d="m54 60h-8a1 1 0 0 1 -.707-.293l-9-9a1 1 0 0 1 -.293-.707v-4.93h2v4.516l8.414 8.414h7.586z" fill="#ff9811"/><g fill="#00ccb3"><circle cx="59" cy="5" r="3"/><circle cx="59" cy="32" r="3"/><circle cx="5" cy="32" r="3"/><circle cx="5" cy="5" r="3"/><circle cx="59" cy="59" r="3"/><circle cx="5" cy="59" r="3"/></g><path d="m18 60h-8v-2h7.586l8.414-8.414v-4.516h2v4.93a1 1 0 0 1 -.293.707l-9 9a1 1 0 0 1 -.707.293z" fill="#ff9811"/><path d="m32 47a15.02 15.02 0 1 1 8.57-2.7 14.868 14.868 0 0 1 -8.57 2.7zm0-28a13 13 0 0 0 0 26 13.019 13.019 0 0 0 13-13 13.015 13.015 0 0 0 -13-13z" fill="#ee8700"/></svg>